<?xml version="1.0" encoding="UTF-8"?>
<!DOCTYPE svg PUBLIC "-//W3C//DTD SVG 1.1//EN" "http://www.w3.org/Graphics/SVG/1.1/DTD/svg11.dtd">
<!-- Creator: CorelDRAW -->
<svg xmlns="http://www.w3.org/2000/svg" xml:space="preserve" width="132.689mm" height="12.3032mm" shape-rendering="geometricPrecision" text-rendering="geometricPrecision" image-rendering="optimizeQuality" fill-rule="evenodd" clip-rule="evenodd"
viewBox="0 0 113.492 10.5233"
 xmlns:xlink="http://www.w3.org/1999/xlink">
 <g id="Livello_x0020_1">
  <metadata id="CorelCorpID_0Corel-Layer"/>
  <rect fill="black" width="113.492" height="10.5233" rx="1.35971" ry="1.35971"/>
  <rect fill="black" stroke="black" stroke-width="0.171066" x="56.4489" y="3.26735" width="0.594538" height="3.98856"/>
  <rect fill="black" stroke="black" stroke-width="0.171066" x="56.4489" y="3.26735" width="0.594538" height="3.98856"/>
  <g id="_285722608">
   <g>
    <polygon id="path1922" fill="#E6E6E6" stroke="black" stroke-width="0.171066" points="6.82552,3.6774 9.89982,3.6774 8.55396,5.08082 6.82552,5.08082 "/>
    <polygon id="path3805" fill="#E6E6E6" stroke="black" stroke-width="0.171066" points="6.82261,6.84639 9.89683,6.84639 8.55088,5.44296 6.82261,5.44296 "/>
    <path id="path4382" fill="#E6E6E6" stroke="black" stroke-width="0.171066" d="M6.75854 1.71887l0 1.76805c-0.314162,-0.194502 -0.663649,-0.290469 -1.04863,-0.290469 -0.367449,0 -0.708553,0.0921188 -1.02263,0.277639 -0.31459,0.184152 -0.561694,0.436217 -0.742424,0.755682 -0.180731,0.317669 -0.27131,0.660142 -0.27131,1.024 0,0.367962 0.0906647,0.707955 0.27131,1.02212 0.180645,0.313135 0.428776,0.561779 0.744819,0.745418 0.31553,0.18304 0.655352,0.275587 1.02006,0.275587 0.381647,0 0.731647,-0.0931452 1.0488,-0.277639l-8.55328e-005 1.77592c-0.340677,0.102896 -0.690335,0.15413 -1.04872,0.15413 -0.657747,0 -1.2717,-0.165848 -1.84041,-0.497801 -0.568194,-0.331867 -1.01912,-0.783309 -1.35099,-1.35142 -0.331867,-0.568194 -0.49763,-1.18412 -0.49763,-1.84622 0,-0.49053 0.0959678,-0.963013 0.288502,-1.41694 0.192534,-0.453409 0.459824,-0.850281 0.802468,-1.19002 0.341703,-0.339736 0.73447,-0.603092 1.17616,-0.79075 0.442547,-0.188087 0.916313,-0.282173 1.4219,-0.282173 0.349572,0.000171066 0.699145,0.0493524 1.0488,0.144893z"/>
    <path id="path4340" fill="#E6E6E6" stroke="black" stroke-width="0.171066" d="M14.9422 5.5261c-0.015567,0.438698 -0.0703079,0.627383 -0.242143,0.799475 -0.249927,0.253861 -0.570333,0.321004 -1.60203,0.321004 -0.803324,0 -1.14118,-0.0557674 -1.40137,-0.244367 -0.254973,-0.176967 -0.338111,-0.460166 -0.338111,-1.15281 0,-0.631488 0.0776638,-0.908786 0.310056,-1.09653 0.249157,-0.205108 0.592913,-0.265494 1.47903,-0.265494 0.869098,0 1.25169,0.0660313 1.5017,0.270968 0.210924,0.166019 0.281232,0.371469 0.296799,0.863967l-0.995516 0c-0.0331867,-0.298424 -0.226491,-0.398754 -0.802982,-0.398754 -0.681525,0 -0.808456,0.104949 -0.808456,0.653299 0,0.343842 0.0553397,0.476931 0.232735,0.549206 0.115982,0.0502077 0.326564,0.0774072 0.586669,0.0774072 0.576063,0 0.742424,-0.0774072 0.786559,-0.377285l0.997056 -8.55328e-005 0 0z"/>
    <path id="path4342" fill="#E6E6E6" stroke="black" stroke-width="0.171066" d="M18.5196 4.13055c0.265579,0.193732 0.339822,0.431513 0.339822,1.09114 0,0.720357 -0.066459,0.964895 -0.304668,1.16376 -0.249927,0.205364 -0.577859,0.261217 -1.54652,0.261217 -0.980291,0 -1.30831,-0.0557674 -1.55439,-0.261217 -0.246078,-0.198864 -0.308602,-0.443231 -0.308602,-1.20276 0,-0.614296 0.078177,-0.863539 0.339736,-1.05205 0.242143,-0.177395 0.624817,-0.238636 1.51932,-0.238636 0.894416,-8.55328e-005 1.27324,0.0611559 1.5153,0.238551m-2.39406 1.15794c0,0.348888 0.046872,0.465213 0.222471,0.537488 0.1212,0.0550831 0.343756,0.0829668 0.660056,0.0829668 0.741997,0 0.870895,-0.0945992 0.870895,-0.648852 0,-0.354191 -0.0585899,-0.48155 -0.238209,-0.552969 -0.124963,-0.0499511 -0.355474,-0.078177 -0.632686,-0.078177 -0.749695,-8.55328e-005 -0.882527,0.0995601 -0.882527,0.659543z"/>
    <path id="path4344" fill="#E6E6E6" stroke="black" stroke-width="0.171066" d="M19.9804 3.95906l0 0.392938 0.0508065 0c0.144465,-0.315188 0.476503,-0.460081 1.05838,-0.460081 0.632771,0 0.980291,0.160887 1.1913,0.54912 0.167986,-0.393707 0.488221,-0.54912 1.1286,-0.54912 0.542791,0 0.867046,0.10033 1.09345,0.338197 0.226405,0.232393 0.277212,0.44879 0.277212,1.12382l0 1.22543 -0.980291 0 0 -1.22534c-0.00778348,-0.436901 -0.019587,-0.486425 -0.113331,-0.581024 -0.0976784,-0.0995601 -0.265494,-0.144123 -0.55066,-0.144123 -0.296799,0 -0.480352,0.0500367 -0.581794,0.166447 -0.113331,0.121799 -0.14455,0.27687 -0.14455,0.702994l0 1.08113 -0.980291 0 0 -1.22543c0,-0.409103 -0.0116325,-0.481464 -0.105376,-0.581024 -0.0898949,-0.0995601 -0.261645,-0.144123 -0.542962,-0.144123 -0.296799,0 -0.488221,0.0500367 -0.597446,0.160545 -0.113245,0.110936 -0.144465,0.277212 -0.144465,0.708981l0 1.08113 -0.980206 0 0 -2.62047 0.921616 0z"/>
    <path id="path4346" fill="#E6E6E6" stroke="black" stroke-width="0.171066" d="M25.9323 3.95906l0 0.392938 0.0467864 0c0.14455,-0.315188 0.476589,-0.460081 1.05855,-0.460081 0.632686,0 0.980291,0.160887 1.19121,0.54912 0.167986,-0.393707 0.488307,-0.54912 1.13262,-0.54912 0.542877,0 0.863111,0.10033 1.08952,0.338197 0.226491,0.232393 0.277297,0.44879 0.277297,1.12382l0 1.22543 -0.980206 0 0 -1.22534c-0.00402004,-0.436901 -0.015738,-0.486425 -0.109396,-0.581024 -0.101527,-0.0995601 -0.265665,-0.144123 -0.55468,-0.144123 -0.292779,0 -0.476418,0.0500367 -0.581794,0.166447 -0.113245,0.121799 -0.144465,0.27687 -0.144465,0.702994l0 1.08113 -0.980377 0 0 -1.22543c0,-0.409103 -0.0116325,-0.481464 -0.105376,-0.581024 -0.0898949,-0.0995601 -0.261645,-0.144123 -0.542962,-0.144123 -0.29295,0 -0.488221,0.0500367 -0.597617,0.160545 -0.113074,0.110936 -0.144379,0.277212 -0.144379,0.708981l0 1.08113 -0.98012 0 0 -2.62047 0.925379 0z"/>
    <path id="path4348" fill="#E6E6E6" stroke="black" stroke-width="0.171066" d="M34.3139 4.13055c0.265408,0.193732 0.335802,0.431513 0.335802,1.09114 0,0.720357 -0.0662879,0.964895 -0.304582,1.16376 -0.249927,0.205364 -0.57401,0.261217 -1.54652,0.261217 -0.980291,0 -1.30446,-0.0557674 -1.55439,-0.261217 -0.242229,-0.198864 -0.304668,-0.443231 -0.304668,-1.20276 0,-0.614296 0.0779204,-0.863539 0.339651,-1.05205 0.242143,-0.177395 0.624902,-0.238636 1.51538,-0.238636 0.898436,-8.55328e-005 1.27324,0.0611559 1.51932,0.238551m-2.39423 1.15794c0,0.348888 0.043023,0.465213 0.222642,0.537488 0.121114,0.0550831 0.343671,0.0829668 0.656036,0.0829668 0.745931,0 0.870895,-0.0945992 0.870895,-0.648852 0,-0.354191 -0.0546554,-0.48155 -0.238294,-0.552969 -0.121114,-0.0499511 -0.355389,-0.078177 -0.6326,-0.078177 -0.74576,-8.55328e-005 -0.878678,0.0995601 -0.878678,0.659543z"/>
    <path id="path4350" fill="#E6E6E6" stroke="black" stroke-width="0.171066" d="M38.5591 6.57944l-0.921787 0 0 -0.343585 -0.0508065 0c-0.187402,0.315958 -0.449047,0.410728 -1.15982,0.410728 -0.707099,0 -1.04675,-0.0727029 -1.27333,-0.277297 -0.214944,-0.199548 -0.281232,-0.465983 -0.281232,-1.11988 0,-0.665103 0.105462,-0.980206 0.382503,-1.16265 0.238465,-0.155841 0.507894,-0.199548 1.18352,-0.199548 0.687427,0 0.913832,0.0882698 1.10149,0.421078l0.0389174 0 0 -1.42446 0.980206 0 0 3.69553 0.000342131 0 0 8.55328e-005zm-2.70668 -1.3409c0,0.575721 0.109482,0.664761 0.847801,0.664761 0.359238,0 0.624731,-0.0441349 0.738062,-0.121799 0.109225,-0.0727029 0.148228,-0.211523 0.148228,-0.516019 0,-0.541765 -0.128983,-0.642095 -0.827872,-0.642095 -0.773216,0 -0.90622,0.0890396 -0.90622,0.615152z"/>
    <path id="path4352" fill="#E6E6E6" stroke="black" stroke-width="0.171066" d="M42.1093 4.13055c0.265408,0.193732 0.33948,0.431513 0.33948,1.09114 0,0.720357 -0.0661168,0.964895 -0.304497,1.16376 -0.249927,0.205364 -0.57803,0.261217 -1.54652,0.261217 -0.980377,0 -1.30463,-0.0557674 -1.55456,-0.261217 -0.245992,-0.198864 -0.304582,-0.443231 -0.304582,-1.20276 0,-0.614296 0.078177,-0.863539 0.335973,-1.05205 0.246078,-0.177395 0.628751,-0.238636 1.5194,-0.238636 0.89818,-8.55328e-005 1.27307,0.0611559 1.5153,0.238551m-2.39038 1.15794c0,0.348888 0.043194,0.465213 0.222727,0.537488 0.11718,0.0550831 0.33948,0.0829668 0.655951,0.0829668 0.741911,0 0.871066,-0.0945992 0.871066,-0.648852 0,-0.354191 -0.0548265,-0.48155 -0.238465,-0.552969 -0.120943,-0.0499511 -0.355132,-0.078177 -0.6326,-0.078177 -0.74576,-8.55328e-005 -0.878678,0.0995601 -0.878678,0.659543z"/>
    <path id="path4354" fill="#E6E6E6" stroke="black" stroke-width="0.171066" d="M43.5737 3.95906l0 0.392938 0.0509775 0c0.179619,-0.332808 0.456831,-0.460081 1.00775,-0.460081 0.788783,0 1.05428,0.266349 1.05428,1.05299l0 0.177224 -0.921701 0c0,-0.388233 -0.113331,-0.493353 -0.515506,-0.493353 -0.222556,0 -0.406195,0.0668011 -0.499939,0.188771 -0.0937439,0.127358 -0.121029,0.271395 -0.121029,0.675794l0 1.08601 -0.980462 0 0 -2.6203 0.925636 0z"/>
    <path id="path4356" fill="#E6E6E6" stroke="black" stroke-width="0.171066" d="M49.3734 5.74284c-0.0740714,0.725917 -0.43348,0.903739 -1.83562,0.903739 -0.757649,0 -1.11706,-0.0671432 -1.35527,-0.244367 -0.25771,-0.193817 -0.331953,-0.455034 -0.331953,-1.12535 0,-0.703336 0.0739858,-0.963869 0.351369,-1.15717 0.25771,-0.177309 0.582051,-0.232307 1.43729,-0.232307 0.882784,0 1.19515,0.0550831 1.43344,0.248387 0.23034,0.194074 0.320406,0.487793 0.320406,1.08062 0,0.0331012 0,0.154558 -0.00402004,0.265323l-2.56205 -8.55328e-005c0,0.266435 0.031305,0.354533 0.124963,0.427322 0.105462,0.0776638 0.308602,0.111278 0.663991,0.111278 0.624731,0 0.741911,-0.044477 0.781085,-0.277212l0.976357 -0.000171066 0 0zm-0.964468 -0.798106c-0.00804008,-0.204937 -0.0195015,-0.254546 -0.078348,-0.315873 -0.0898094,-0.0945137 -0.288844,-0.132918 -0.675452,-0.132918 -0.660056,0 -0.816154,0.0833089 -0.828043,0.44879l1.58184 0z"/>
   </g>
   <path id="_285981352" fill="#E6E6E6" fill-rule="nonzero" d="M96.2702 3.88661l0.69521 0 0 0.413722c0.0896383,-0.142155 0.211865,-0.257112 0.365738,-0.344868 0.153873,-0.088783 0.325025,-0.133089 0.512341,-0.133089 0.326821,0 0.604717,0.128556 0.831892,0.384726 0.228116,0.256171 0.342217,0.613698 0.342217,1.07173 0,0.469832 -0.114956,0.83557 -0.344013,1.09627 -0.229912,0.260704 -0.508749,0.391056 -0.835484,0.391056 -0.155755,0 -0.29697,-0.0307918 -0.423644,-0.0923754 -0.125819,-0.0624389 -0.258908,-0.168328 -0.399181,-0.31861l0 1.41942 -0.745076 0 0 -3.88798zm0.737806 1.36057c0,0.315958 0.0624389,0.550403 0.188258,0.700599 0.124963,0.151222 0.277896,0.227261 0.458969,0.227261 0.172862,0 0.316813,-0.0697092 0.431769,-0.208187 0.114956,-0.138563 0.172947,-0.366679 0.172947,-0.682552 0,-0.296029 -0.0597874,-0.515078 -0.178336,-0.658089 -0.118634,-0.143011 -0.265237,-0.214516 -0.439981,-0.214516 -0.181928,0 -0.333065,0.0696237 -0.453495,0.210838 -0.12043,0.140359 -0.180132,0.348546 -0.180132,0.624646z"/>
   <polygon id="_2859813521" fill="#E6E6E6" fill-rule="nonzero" points="99.6096,6.70278 99.6096,2.81488 100.355,2.81488 100.355,6.70278 "/>
   <path id="_28598135212" fill="#E6E6E6" fill-rule="nonzero" d="M102.972 6.70278l0 -0.421848c-0.103153,0.150281 -0.238038,0.26883 -0.404656,0.355731 -0.167473,0.086046 -0.343927,0.129497 -0.529533,0.129497 -0.189198,0 -0.358468,-0.0416545 -0.508749,-0.124023 -0.150281,-0.0833089 -0.258908,-0.200061 -0.326735,-0.350342 -0.0669722,-0.150281 -0.100501,-0.358468 -0.100501,-0.623705l0 -1.78148 0.74499 0 0 1.2936c0,0.396444 0.0135997,0.639101 0.0416545,0.728654 0.0271139,0.088783 0.076894,0.159348 0.14934,0.211865 0.0724463,0.0525171 0.164736,0.0778348 0.2761,0.0778348 0.127615,0 0.241716,-0.0343842 0.342217,-0.104093 0.100415,-0.0706501 0.169269,-0.156611 0.206391,-0.259763 0.0370357,-0.104179 0.0561095,-0.357613 0.0561095,-0.760386l0 -1.18771 0.74499 0 0 2.81617 -0.691618 0z"/>
   <path id="_285981352123" fill="#E6E6E6" fill-rule="nonzero" d="M104.174 5.89894l0.747727 -0.114101c0.0317327,0.144893 0.0959678,0.255315 0.193732,0.330413 0.0968231,0.0751833 0.232649,0.11316 0.408248,0.11316 0.192791,0 0.337683,-0.0352395 0.434506,-0.10683 0.0661168,-0.0488392 0.0987048,-0.115811 0.0987048,-0.198179 0,-0.0570504 -0.0181329,-0.104093 -0.053458,-0.141215 -0.0371212,-0.035325 -0.120345,-0.067913 -0.2489,-0.097764 -0.601124,-0.132148 -0.982173,-0.253519 -1.14332,-0.363001 -0.222642,-0.152077 -0.334005,-0.363942 -0.334005,-0.634568 0,-0.243512 0.0959678,-0.448962 0.288759,-0.614639 0.192791,-0.166618 0.491557,-0.249841 0.896127,-0.249841 0.385667,0 0.67263,0.0633798 0.860032,0.188258 0.187317,0.125819 0.315873,0.311425 0.386523,0.557588l-0.702481 0.129497c-0.0298509,-0.109567 -0.0869013,-0.193732 -0.171066,-0.251637 -0.0842498,-0.0588465 -0.203739,-0.0878422 -0.359409,-0.0878422 -0.196383,0 -0.336743,0.0271994 -0.421848,0.0823681 -0.0561095,0.0389174 -0.0841642,0.0896383 -0.0841642,0.151222 0,0.0533724 0.0244624,0.097764 0.0742424,0.134885 0.0669722,0.0497801 0.29868,0.119489 0.696066,0.209983 0.39653,0.0896383 0.673485,0.200061 0.831036,0.331268 0.15567,0.133089 0.233504,0.317754 0.233504,0.553996 0,0.258052 -0.107686,0.480694 -0.323998,0.6663 -0.215457,0.185521 -0.534152,0.277896 -0.956855,0.277896 -0.383786,0 -0.687085,-0.0778348 -0.911523,-0.23359 -0.223583,-0.154729 -0.369331,-0.366593 -0.438184,-0.633627z"/>
   <polygon id="_2859813521234" fill="#E6E6E6" fill-rule="nonzero" points="107.059,6.76889 108.022,2.74877 108.581,2.74877 107.608,6.76889 "/>
   <path id="_28598135212345" fill="#E6E6E6" fill-rule="nonzero" d="M110.268 6.70278l0 -0.782112 -1.59134 0 0 -0.652701 1.6873 -2.46942 0.625501 0 0 2.46677 0.48249 0 0 0.655352 -0.48249 0 0 0.782112 -0.721469 0zm0 -1.43746l0 -1.32892 -0.89339 1.32892 0.89339 0z"/>
   <g>
    <rect id="_7527840" fill="#0B4CB7" x="51.5459" y="3.33595" width="0.855328" height="3.85137"/>
    <rect id="_239245064" fill="#0E57B0" x="52.8797" y="3.33595" width="0.855328" height="3.85137"/>
    <rect id="_239245880" fill="#1364A8" x="54.2135" y="3.33595" width="0.855328" height="3.85137"/>
    <rect id="_239245568" fill="#17719F" x="55.5473" y="3.33595" width="0.855328" height="3.85137"/>
    <rect id="_239246384" fill="#1A7B99" x="56.8811" y="3.33595" width="0.855328" height="3.85137"/>
    <rect id="_239246072" fill="#1F8B8F" x="58.2149" y="3.33595" width="0.855328" height="3.85137"/>
    <rect id="_239246888" fill="#229688" x="59.5487" y="3.33595" width="0.855328" height="3.85137"/>
    <rect id="_239246576" fill="#26A380" x="60.8825" y="3.33595" width="0.855328" height="3.85137"/>
    <rect id="_7469544" fill="#2AAF78" x="62.2163" y="3.33595" width="0.855328" height="3.85137"/>
    <rect id="_239247080" fill="#2DBA72" x="63.5501" y="3.33595" width="0.855328" height="3.85137"/>
    <rect id="_7521792" fill="#31C769" x="64.8839" y="3.33595" width="0.855328" height="3.85137"/>
    <rect id="_238475344" fill="#41CF5F" x="66.2177" y="3.33595" width="0.855328" height="3.85137"/>
    <rect id="_7522296" fill="#51D357" x="67.5515" y="3.33595" width="0.855328" height="3.85137"/>
    <rect id="_7521984" fill="#68D94C" x="68.8853" y="3.33595" width="0.855328" height="3.85137"/>
    <rect id="_7522800" fill="#79DD43" x="70.2191" y="3.33595" width="0.855328" height="3.85137"/>
    <rect id="_7522488" fill="#8FE338" x="71.5529" y="3.33595" width="0.855328" height="3.85137"/>
    <rect id="_7523304" fill="#A0E730" x="72.8867" y="3.33595" width="0.855328" height="3.85137"/>
    <rect id="_7522992" fill="#B4EC26" x="74.2205" y="3.33595" width="0.855328" height="3.85137"/>
    <rect id="_7523808" fill="#C9F11B" x="75.5543" y="3.33595" width="0.855328" height="3.85137"/>
    <rect id="_7523496" fill="#DBF612" x="76.8881" y="3.33595" width="0.855328" height="3.85137"/>
    <rect id="_7524312" fill="#EAF90B" x="78.2219" y="3.33595" width="0.855328" height="3.85137"/>
    <rect id="_7524000" fill="#FFFD00" x="79.5557" y="3.33595" width="0.855328" height="3.85137"/>
    <rect id="_7524816" fill="#FFE600" x="80.8895" y="3.33595" width="0.855328" height="3.85137"/>
    <rect id="_7524504" fill="#FFCB00" x="82.2233" y="3.33595" width="0.855328" height="3.85137"/>
    <rect id="_7525320" fill="#FFB700" x="83.5571" y="3.33595" width="0.855328" height="3.85137"/>
    <rect id="_7525008" fill="#FFA300" x="84.8908" y="3.33595" width="0.855328" height="3.85137"/>
    <rect id="_7525824" fill="#FF8700" x="86.2246" y="3.33595" width="0.855328" height="3.85137"/>
    <rect id="_7525512" fill="#FF7300" x="87.5584" y="3.33595" width="0.855328" height="3.85137"/>
    <rect id="_7526328" fill="#FF5F00" x="88.8922" y="3.33595" width="0.855328" height="3.85137"/>
    <rect id="_7526016" fill="#FF4100" x="90.226" y="3.33595" width="0.855328" height="3.85137"/>
    <rect id="_7526832" fill="#FF2D00" x="91.5598" y="3.33595" width="0.855328" height="3.85137"/>
    <rect id="_7526520" fill="#FF1400" x="92.8936" y="3.33595" width="0.855328" height="3.85137"/>
   </g>
  </g>
 </g>
</svg>
