<?xml version="1.0" encoding="UTF-8"?>
<!DOCTYPE svg PUBLIC "-//W3C//DTD SVG 1.1//EN" "http://www.w3.org/Graphics/SVG/1.1/DTD/svg11.dtd">
<!-- Creator: CorelDRAW -->
<svg xmlns="http://www.w3.org/2000/svg" xml:space="preserve" width="145.171mm" height="14.0022mm" shape-rendering="geometricPrecision" text-rendering="geometricPrecision" image-rendering="optimizeQuality" fill-rule="evenodd" clip-rule="evenodd"
viewBox="0 0 146.371 14.118"
 xmlns:xlink="http://www.w3.org/1999/xlink">
 <g id="Livello_x0020_1">
  <metadata id="CorelCorpID_0Corel-Layer"/>
  <g id="_305303632">
   <polygon id="_300574840" fill="black" points="0.101634,13.9635 0.101634,11.9 16.2586,11.9 16.2586,9.54529 0.101634,9.54539 -0,3.19087 18.3564,3.19087 18.3564,5.24875 2.19924,5.24875 2.30087,7.48802 18.4575,7.48802 18.4575,13.964 0.101634,13.964 "/>
   <polygon id="_300575008" fill="black" points="19.7868,13.9635 19.7868,3.2314 21.9861,3.2314 21.9861,13.9635 19.7868,13.9635 "/>
   <polygon id="_300575056" fill="black" points="23.1665,13.9635 23.1665,3.2314 41.523,3.2314 41.523,13.9635 39.3237,13.9635 39.3237,5.28898 25.3655,5.28898 25.3655,13.9643 23.1665,13.9635 23.1665,13.9635 "/>
   <polygon id="_300575224" fill="black" points="42.6971,13.9635 42.6971,3.2314 61.0669,3.2314 61.0669,5.28928 44.9102,5.28928 44.9102,11.9003 61.0669,11.9003 61.0669,13.9648 42.6971,13.9648 "/>
   <polygon id="_300575272" fill="black" points="62.5304,13.9635 62.5304,0 64.7301,0 64.7301,13.964 62.5304,13.964 "/>
   <polygon id="_300575440" fill="black" points="85.5823,13.9635 85.5823,3.2314 87.7951,3.2314 87.7951,13.9635 85.5823,13.9635 "/>
   <polygon id="_300575488" fill="black" points="89.1242,13.9635 89.1242,3.2314 107.48,3.2314 107.48,5.28928 91.3234,5.28928 91.3234,13.9648 89.1242,13.9648 89.1242,13.9635 "/>
   <path id="_300575656" fill="black" d="M65.9036 3.2314l0 2.05788 16.1567 0 0 2.35401 -16.1567 0 0 6.32074 18.3701 0 0 -10.7326 -18.3701 0zm16.1567 8.6689l-13.9444 0 0 -2.35471 13.9444 0 0 2.35471z"/>
   <polygon id="_300575704" fill="black" points="19.7868,2.06453 19.7868,0 21.9861,0 21.9861,2.06453 19.7868,2.06453 "/>
   <polygon id="_300575872" fill="black" points="85.5823,2.06453 85.5823,0 87.7951,0 87.7951,2.06453 85.5823,2.06453 "/>
   <polygon id="_302724336" fill="red" fill-rule="nonzero" points="114.234,11.9801 119.636,5.14268 114.371,5.14268 114.371,3.26921 122.384,3.26921 122.384,5.04226 116.908,11.9801 122.399,11.9801 122.399,13.8462 114.234,13.8462 "/>
   <polygon id="_3027243361" fill="red" fill-rule="nonzero" points="125.641,13.8462 123.074,13.8462 126.474,8.45606 123.239,3.26921 125.878,3.26921 127.764,6.71488 129.704,3.26921 132.258,3.26921 129.02,8.37035 132.459,13.8462 129.775,13.8462 127.764,10.2389 "/>
   <path id="_30272433612" fill="red" fill-rule="nonzero" d="M135.148 10.8242c0,0.511798 0.132184,0.908552 0.399174,1.19016 0.264469,0.28161 0.631782,0.423675 1.10204,0.423675 0.467736,0 0.835049,-0.142065 1.09952,-0.423675 0.26699,-0.28161 0.399174,-0.678364 0.399174,-1.19016 0,-0.531459 -0.134705,-0.933053 -0.406534,-1.20982 -0.26941,-0.274249 -0.634202,-0.411374 -1.09216,-0.411374 -0.460477,0 -0.82537,0.137125 -1.09468,0.411374 -0.27183,0.27677 -0.406534,0.678364 -0.406534,1.20982zm-2.12321 0.137125c0,-0.585301 0.132184,-1.11182 0.396653,-1.58692 0.26699,-0.472576 0.653863,-0.830209 1.16576,-1.06776 -0.502018,-0.335451 -0.82779,-0.697924 -0.979635,-1.08732 -0.149325,-0.389394 -0.225247,-0.754287 -0.225247,-1.09468 0,-0.754186 0.28403,-1.40079 0.85461,-1.93215 0.56816,-0.533879 1.37387,-0.800869 2.41229,-0.800869 1.0359,0 1.8416,0.26699 2.40966,0.800869 0.570681,0.531358 0.85471,1.17796 0.85471,1.93215 0,0.340392 -0.0759227,0.705285 -0.225247,1.09468 -0.151845,0.389394 -0.477617,0.727366 -0.979635,1.01634 0.509378,0.28655 0.896352,0.666164 1.15346,1.13874 0.257109,0.475097 0.386974,1.00404 0.386974,1.58692 0,0.874271 -0.323251,1.6212 -0.972275,2.23594 -0.648923,0.614641 -1.55263,0.920752 -2.71588,0.920752 -1.16082,0 -2.04235,-0.308531 -2.63995,-0.923273 -0.597501,-0.614641 -0.896251,-1.35915 -0.896251,-2.23342zm2.30934 -4.60648c0,0.377194 0.115044,0.685724 0.347752,0.925793 0.232608,0.237548 0.553439,0.357533 0.964813,0.357533 0.416315,0 0.739566,-0.119984 0.967334,-0.357533 0.227768,-0.240069 0.340392,-0.5486 0.340392,-0.925793 0,-0.411374 -0.112624,-0.732206 -0.340392,-0.964813 -0.227768,-0.232709 -0.551019,-0.347752 -0.967334,-0.347752 -0.411374,0 -0.732206,0.115044 -0.964813,0.347752 -0.232709,0.232608 -0.347752,0.553439 -0.347752,0.964813z"/>
   <path id="_302724336123" fill="red" fill-rule="nonzero" d="M141.828 6.67081l0 -1.39101c0.646503,-0.0294415 1.0971,-0.071083 1.35673,-0.129764 0.411374,-0.0906435 0.744506,-0.27183 1.00404,-0.54376 0.176346,-0.188546 0.311051,-0.435875 0.401594,-0.746926 0.0515226,-0.186026 0.0784434,-0.325671 0.0784434,-0.416315l1.70196 0 0 10.4031 -2.09629 0 0 -7.17535 -2.44647 0z"/>
  </g>
 </g>
</svg>
